M48
;GenerationSoftware,Autodesk,EAGLE,9.1.3*%
;CreationDate,2019-01-27T15:06:58Z*%
FMAT,2
ICI,OFF
METRIC,TZ,000.000
T6C0.350
T5C0.500
T4C0.900
T3C1.016
T2C2.800
%
G90
M71
T2
X8000Y90610
X87000Y90610
X87000Y-3000
X8000Y-3000
T3
X93085Y37620
X50540Y7620
X93085Y22860
X93085Y20320
X93085Y17780
X93085Y15240
X93085Y35080
X50540Y5080
X93085Y40160
X93085Y42700
X93085Y45240
X93085Y47780
X93085Y50320
X93085Y52860
X50540Y37620
X50540Y35080
X93085Y12700
X45085Y12700
X2540Y65080
X2540Y67620
X45085Y82860
X45085Y80320
X45085Y77780
X45085Y75240
X45085Y72700
X45085Y5080
X45085Y7620
X45085Y10160
X50540Y65080
X45085Y15240
X45085Y17780
X45085Y20320
X45085Y22860
X2540Y7620
X2540Y5080
X45085Y70160
X45085Y67620
X45085Y65080
X93085Y65080
X45085Y37620
X45085Y40160
X45085Y42700
X45085Y45240
X45085Y47780
X45085Y50320
X45085Y52860
X2540Y37620
X2540Y35080
X93085Y7620
X93085Y67620
X93085Y70160
X93085Y72700
X93085Y75240
X93085Y77780
X93085Y80320
X93085Y82860
X50540Y67620
X45085Y35080
X93085Y10160
X93085Y5080
T4
X80385Y2540
X57525Y2540
X57525Y25400
X65145Y2540
X67685Y2540
X70225Y2540
X72765Y2540
X75305Y2540
X77845Y2540
X60065Y2540
X12065Y62540
X82925Y2540
X85465Y2540
X88005Y2540
X90545Y2540
X93085Y2540
X54985Y25400
X62605Y2540
X9525Y85400
X45085Y55400
X14605Y62540
X17145Y62540
X19685Y62540
X22225Y62540
X24765Y62540
X27305Y62540
X29845Y62540
X32385Y62540
X34925Y62540
X37465Y62540
X40005Y62540
X42545Y62540
X45085Y62540
X6985Y85400
X54985Y2540
X12065Y85400
X14605Y85400
X17145Y85400
X19685Y85400
X22225Y85400
X24765Y85400
X27305Y85400
X29845Y85400
X32385Y85400
X34925Y85400
X37465Y85400
X40005Y85400
X42545Y85400
X45085Y85400
X62605Y62540
X85465Y62540
X82925Y62540
X80385Y62540
X77845Y62540
X75305Y62540
X72765Y62540
X70225Y62540
X67685Y62540
X65145Y62540
X88005Y62540
X60065Y62540
X57525Y62540
X54985Y62540
X93085Y55400
X90545Y55400
X88005Y55400
X85465Y55400
X82925Y55400
X80385Y55400
X70225Y85400
X93085Y85400
X90545Y85400
X88005Y85400
X85465Y85400
X82925Y85400
X80385Y85400
X77845Y85400
X75305Y85400
X72765Y85400
X77845Y55400
X67685Y85400
X65145Y85400
X62605Y85400
X60065Y85400
X57525Y85400
X54985Y85400
X93085Y62540
X90545Y62540
X85465Y25400
X67685Y32540
X65145Y32540
X62605Y32540
X60065Y32540
X57525Y32540
X54985Y32540
X93085Y25400
X90545Y25400
X88005Y25400
X70225Y32540
X82925Y25400
X80385Y25400
X77845Y25400
X75305Y25400
X72765Y25400
X70225Y25400
X67685Y25400
X65145Y25400
X62605Y25400
X93085Y32540
X75305Y55400
X72765Y55400
X70225Y55400
X67685Y55400
X65145Y55400
X62605Y55400
X60065Y55400
X57525Y55400
X54985Y55400
X60065Y25400
X90545Y32540
X88005Y32540
X85465Y32540
X82925Y32540
X80385Y32540
X77845Y32540
X75305Y32540
X72765Y32540
X27305Y25400
X6985Y25400
X9525Y25400
X12065Y25400
X14605Y25400
X17145Y25400
X19685Y25400
X22225Y25400
X24765Y25400
X45085Y2540
X29845Y25400
X32385Y25400
X34925Y25400
X37465Y25400
X40005Y25400
X42545Y25400
X45085Y25400
X6985Y62540
X42545Y2540
X40005Y2540
X37465Y2540
X34925Y2540
X32385Y2540
X29845Y2540
X27305Y2540
X24765Y2540
X22225Y2540
X19685Y2540
X17145Y2540
X14605Y2540
X12065Y2540
X9525Y2540
X6985Y2540
X29845Y55400
X9525Y55400
X12065Y55400
X14605Y55400
X17145Y55400
X19685Y55400
X22225Y55400
X24765Y55400
X27305Y55400
X9525Y32540
X32385Y55400
X34925Y55400
X37465Y55400
X40005Y55400
X42545Y55400
X9525Y62540
X6985Y32540
X45085Y32540
X12065Y32540
X14605Y32540
X17145Y32540
X19685Y32540
X22225Y32540
X24765Y32540
X27305Y32540
X29845Y32540
X32385Y32540
X34925Y32540
X37465Y32540
X40005Y32540
X42545Y32540
X6985Y55400
T5
X1905Y17270
X1905Y10670
X1905Y47270
X1905Y40670
X1905Y77270
X1905Y70670
X49905Y10670
X49905Y47270
X49905Y40670
X49905Y77270
X49905Y70670
X49905Y17270
T6
X38735Y82225
X19685Y36033
X38100Y80955
X33020Y80955
X40640Y69525
X28575Y42700
X29845Y45240
X39370Y41430
X31115Y44605
X17463Y35080
X88640Y9525
X38735Y83495
X10160Y80955
X26035Y82225
X21590Y73970
X21590Y72700
X19685Y66033
X17463Y65080
X31115Y74605
X39370Y71430
X29845Y75240
X28575Y72700
X39370Y11430
X33020Y20955
X38100Y20955
X38735Y22225
X38735Y23495
X10160Y20955
X26035Y22225
X21590Y13970
X21590Y12700
X19685Y6032
X17463Y5080
X31115Y14605
X21590Y42700
X29845Y15240
X28575Y12700
X40640Y39525
X33020Y50955
X38100Y50955
X38735Y52225
X38735Y53495
X10160Y50955
X26035Y52225
X21590Y43970
X58160Y80955
X67685Y36033
X65462Y35080
X79115Y44605
X87370Y41430
X77845Y45240
X76575Y42700
X88640Y69525
X81020Y80955
X86100Y80955
X86735Y82225
X86735Y83495
X69590Y42700
X74035Y82225
X69590Y73970
X69590Y72700
X67685Y66033
X65462Y65080
X79115Y74605
X87370Y71430
X77845Y75240
X76575Y72700
X40640Y9525
X87370Y11430
X86100Y20955
X86735Y22225
X86735Y23495
X58160Y20955
X74035Y22225
X69590Y13970
X69590Y12700
X67685Y6032
X65462Y5080
X79115Y14605
X81020Y20955
X77845Y15240
X76575Y12700
X88640Y39525
X81020Y50955
X86100Y50955
X86735Y52225
X86735Y53495
X58160Y50955
X74035Y52225
X69590Y43970
M30